<svg xmlns="http://www.w3.org/2000/svg" viewBox="-92 -65.6 482 68" role="img" aria-label="bombadil">
<title>bombadil</title>
<mask id="e-lockup-m" maskUnits="userSpaceOnUse" x="-94" y="-68" width="72" height="72"><rect x="-94" y="-68" width="72" height="72" fill="#fff"/><path d="M-73.184 -36.127H-53.328A12.848 12.848 0 0 1 -53.328 -10.431H-70.848V-47.807" fill="none" stroke="#000" stroke-width="6.208"/></mask><path d="M-62.8 -62.714A9.6 9.6 0 0 1 -53.2 -62.714A54.4 54.4 0 0 1 -26 -15.602A9.6 9.6 0 0 1 -30.8 -7.288A54.4 54.4 0 0 1 -85.2 -7.288A9.6 9.6 0 0 1 -90 -15.602A54.4 54.4 0 0 1 -62.8 -62.714Z" fill="#e6e8eb" mask="url(#e-lockup-m)"/>
<path d="M4.3 -58.86L4.3 -4.3M4.3 -20A16.5 16.5 0 1 0 37.3 -20A16.5 16.5 0 1 0 4.3 -20ZM54.9 -20A16.5 16.5 0 1 0 87.9 -20A16.5 16.5 0 1 0 54.9 -20ZM107.1 -35.7L107.1 -4.3M107.1 -20.5A16 16 0 0 1 139.1 -20.5L139.1 -4.3M139.1 -20.5A16 16 0 0 1 171.1 -20.5L171.1 -4.3M191.9 -58.86L191.9 -4.3M191.9 -20A16.5 16.5 0 1 0 224.9 -20A16.5 16.5 0 1 0 191.9 -20ZM242.5 -20A16.5 16.5 0 1 0 275.5 -20A16.5 16.5 0 1 0 242.5 -20ZM275.5 -35.7L275.5 -4.3M294.7 -20A16.5 16.5 0 1 0 327.7 -20A16.5 16.5 0 1 0 294.7 -20ZM327.7 -58.86L327.7 -4.3M348.5 -35.7L348.5 -4.3M369.3 -58.86L369.3 -17.9A13.6 13.6 0 0 0 382.9 -4.3" fill="none" stroke="#e6e8eb" stroke-width="8.6" stroke-linecap="round" stroke-linejoin="round"/>
<path d="M347.345 -64.271A2.31 2.31 0 0 1 349.655 -64.271A13.09 13.09 0 0 1 356.2 -52.934A2.31 2.31 0 0 1 355.045 -50.934A13.09 13.09 0 0 1 341.955 -50.934A2.31 2.31 0 0 1 340.8 -52.934A13.09 13.09 0 0 1 347.345 -64.271Z" fill="#d97757"/>
</svg>
